<!DOCTYPE svg PUBLIC "-//W3C//DTD SVG 1.1//EN" "http://www.w3.org/Graphics/SVG/1.1/DTD/svg11.dtd">
<!-- Uploaded to: SVG Repo, www.svgrepo.com, Transformed by: SVG Repo Mixer Tools -->
<svg fill="#ff0000" width="64px" height="64px" viewBox="-4 0 32 32" version="1.1" xmlns="http://www.w3.org/2000/svg" stroke="#ff0000" stroke-width="0.00032">
<g id="SVGRepo_bgCarrier" stroke-width="0"/>
<g id="SVGRepo_tracerCarrier" stroke-linecap="round" stroke-linejoin="round" stroke="#000000" stroke-width="5.12"> <title>heart</title> <path d="M18.188 6.094c5.188 0 6.906 6 5.094 9.281-2.781 5.094-11.281 10.5-11.281 10.5s-8.531-5.406-11.281-10.5c-1.813-3.281-0.125-9.281 5.094-9.281 4.813 0 6.031 4.156 6.188 4.781 0.156-0.625 1.375-4.781 6.188-4.781z"/> </g>
<g id="SVGRepo_iconCarrier"> <title>heart</title> <path d="M18.188 6.094c5.188 0 6.906 6 5.094 9.281-2.781 5.094-11.281 10.5-11.281 10.5s-8.531-5.406-11.281-10.5c-1.813-3.281-0.125-9.281 5.094-9.281 4.813 0 6.031 4.156 6.188 4.781 0.156-0.625 1.375-4.781 6.188-4.781z"/> </g>
</svg>